<?xml version="1.0" standalone="no"?>
<!DOCTYPE svg PUBLIC "-//W3C//DTD SVG 20010904//EN"
 "http://www.w3.org/TR/2001/REC-SVG-20010904/DTD/svg10.dtd">
<svg version="1.0" xmlns="http://www.w3.org/2000/svg"
 width="512.000000pt" height="512.000000pt" viewBox="0 0 512.000000 512.000000"
 preserveAspectRatio="xMidYMid meet">

<g transform="translate(0.000000,512.000000) scale(0.100000,-0.100000)"
fill="#000000" stroke="none">
<path d="M1675 5113 c-345 -42 -634 -168 -883 -383 -250 -216 -421 -509 -504
-862 l-22 -93 -3 -1833 c-4 -2017 -8 -1866 57 -1912 41 -29 97 -36 140 -17 19
8 215 126 435 262 220 137 429 260 465 274 l65 26 1030 6 c1116 6 1073 4 1275
63 597 173 1043 694 1120 1308 6 54 10 605 10 1574 l0 1491 -23 34 c-12 19
-38 42 -57 51 -33 17 -126 18 -1555 16 -836 0 -1533 -3 -1550 -5z m2885 -1687
c0 -1206 -2 -1405 -15 -1482 -80 -463 -408 -849 -843 -994 -202 -67 -134 -63
-1272 -70 l-1035 -6 -75 -23 c-113 -34 -190 -75 -485 -259 l-270 -168 -3 1616
c-3 1761 -4 1706 54 1891 137 436 516 777 960 863 43 9 93 17 109 19 17 2 670
5 1453 6 l1422 1 0 -1394z"/>
<path d="M2492 4234 c-18 -9 -43 -31 -55 -48 l-22 -31 -3 -905 c-2 -620 0
-917 8 -942 28 -97 163 -133 239 -65 53 48 51 18 51 988 0 995 3 944 -63 991
-39 28 -112 34 -155 12z"/>
<path d="M2494 1880 c-138 -69 -89 -280 66 -280 155 0 205 212 65 280 -52 25
-80 25 -131 0z"/>
</g>
</svg>
