<?xml version="1.0" standalone="no"?>
<!DOCTYPE svg PUBLIC "-//W3C//DTD SVG 20010904//EN"
 "http://www.w3.org/TR/2001/REC-SVG-20010904/DTD/svg10.dtd">
<svg version="1.0" xmlns="http://www.w3.org/2000/svg"
 width="512.000000pt" height="512.000000pt" viewBox="0 0 512.000000 512.000000"
 preserveAspectRatio="xMidYMid meet">

<g transform="translate(0.000000,512.000000) scale(0.100000,-0.100000)"
fill="#000000" stroke="none">
<path d="M3897 5105 c-338 -64 -617 -324 -708 -660 -41 -147 -28 -400 25 -536
5 -11 -159 -115 -725 -455 -402 -241 -737 -440 -744 -442 -7 -2 -36 20 -65 48
-104 102 -245 180 -401 222 -117 32 -326 31 -444 -1 -311 -84 -561 -334 -646
-646 -32 -115 -32 -335 0 -450 138 -506 664 -790 1158 -625 148 49 320 167
405 278 18 23 37 42 42 42 5 0 324 -160 708 -356 537 -274 698 -360 693 -372
-3 -8 -13 -56 -21 -106 -79 -448 212 -895 661 -1017 115 -32 335 -32 450 0
251 68 468 246 580 476 70 142 88 223 88 395 0 172 -18 253 -88 395 -226 462
-804 642 -1245 386 -94 -54 -203 -143 -245 -200 -16 -22 -34 -41 -39 -41 -5 0
-324 161 -709 357 l-699 356 6 36 c34 221 30 340 -15 485 -12 41 -17 72 -12
77 5 5 338 207 739 448 l729 438 59 -59 c108 -109 246 -186 407 -230 117 -32
326 -31 444 1 250 68 468 247 580 476 70 142 88 224 88 395 0 171 -18 253 -88
395 -112 230 -333 411 -580 475 -106 28 -283 35 -388 15z m288 -300 c270 -57
475 -309 475 -585 0 -324 -276 -600 -600 -600 -276 0 -528 205 -585 475 -43
204 16 397 164 546 149 149 342 207 546 164z m-3000 -1810 c270 -57 475 -309
475 -585 0 -324 -276 -600 -600 -600 -276 0 -528 205 -585 475 -43 204 16 397
164 546 149 149 342 207 546 164z m3000 -1510 c270 -57 475 -309 475 -585 0
-324 -276 -600 -600 -600 -276 0 -528 205 -585 475 -43 204 16 397 164 546
149 149 342 207 546 164z"/>
</g>
</svg>
